<?xml version="1.0" encoding="UTF-8" standalone="no"?>
<svg xmlns="http://www.w3.org/2000/svg" xmlns:xlink="http://www.w3.org/1999/xlink" xmlns:sketch="http://www.bohemiancoding.com/sketch/ns" width="107px" height="62px" viewBox="0 0 107 62" version="1.1">
  <!-- Generator: Sketch 3.3.3 (12072) - http://www.bohemiancoding.com/sketch -->
  <title>Group 3 Copy</title>
  <desc>Created with Sketch.</desc>
  <defs/>
  <g id="Page-1" stroke="none" stroke-width="1" fill="none" fill-rule="evenodd" sketch:type="MSPage">
    <g id="Group-3-Copy" sketch:type="MSLayerGroup" transform="translate(-1.000000, 0.000000)">
      <path d="M0.934545455,25.0064133 C4.93154826,12.9379208 24.9165623,3.76752253 49.0021285,3.76752253 C75.9456552,3.76752253 97.7945565,15.2563962 97.7945565,29.457058 C97.7945565,43.6577199 75.9249453,55.1051922 48.9814186,55.1051922 C46.5790749,55.1051922 44.218151,55.0016888 41.8986468,54.8360834 C45.6471313,55.2707976 49.5612946,55.5192056 53.5582975,55.5192056 C82.7799087,55.5192056 106.471987,43.0988017 106.471987,27.7596028 C106.471987,12.4204039 82.7799087,0 53.5790073,0 C26.138444,0 3.56469756,10.9713568 0.934545455,25.0064133 Z" id="Shape" fill="#FB1F27" sketch:type="MSShapeGroup"/>
      <path d="M55.2979256,61.5431016 C82.7384889,61.5431016 105.291526,50.5924454 107.942387,36.557389 C103.945385,48.6258815 83.9603706,57.7962797 59.8748045,57.7962797 C32.9312778,57.7962797 11.0823764,46.3074061 11.0823764,32.1067442 C11.0823764,17.9060824 32.9312778,6.41720871 59.8748045,6.41720871 C62.2771481,6.41720871 64.6380721,6.5000114 66.9575763,6.68631746 C63.2090918,6.25160332 59.2949284,6.00319524 55.2979256,6.00319524 C26.0763144,6.00319524 2.38423559,18.4235992 2.38423559,33.7627981 C2.38423559,49.1019969 26.0763144,61.5431016 55.2979256,61.5431016 L55.2979256,61.5431016 Z" id="Shape" fill="#FB1F27" sketch:type="MSShapeGroup"/>
      <g id="Group" transform="translate(19.987616, 25.924392)" fill="#FFFFFF" sketch:type="MSShapeGroup">
        <path d="M0.103549296,0.241258877 L5.98514928,0.241258877 L8.24252393,6.30655614 L10.4998986,0.241258877 L16.3607887,0.241258877 L16.3607887,10.1982827 L12.6951436,10.1982827 L12.6951436,2.60113563 L9.8786028,10.1982827 L6.56502534,10.1982827 L3.7484845,2.60113563 L3.7484845,10.1982827 L0.0828394364,10.1982827 L0.0828394364,0.241258877 L0.103549296,0.241258877 Z" id="Shape"/>
        <path d="M19.6122366,5.23012113 C19.6122366,3.59476794 20.1714028,2.33202688 21.310445,1.42119725 C22.4494873,0.51036763 24.0234366,0.0549528182 26.0530028,0.0549528182 C28.1239887,0.0549528182 29.7393577,0.51036763 30.8576901,1.40049658 C31.9760225,2.29062553 32.5351887,3.53266592 32.5351887,5.14731844 C32.5351887,6.30655614 32.2866704,7.25878711 31.7896337,8.00401135 C31.2925971,8.74923558 30.5884619,9.32885443 29.6565182,9.7428679 C28.7245746,10.1568814 27.5648225,10.3638881 26.1772619,10.3638881 C24.7689915,10.3638881 23.6092394,10.177582 22.6772957,9.82567059 C21.7453521,9.47375915 20.9997971,8.89414029 20.4406309,8.12821538 C19.9021746,7.36229047 19.6122366,6.38935883 19.6122366,5.23012113 L19.6122366,5.23012113 Z M23.4849802,5.23012113 C23.4849802,6.24445412 23.7127887,6.96897768 24.1891154,7.40369182 C24.6654422,7.83840596 25.286738,8.06611336 26.0944225,8.06611336 C26.9228168,8.06611336 27.5648225,7.85910663 28.0204394,7.42439249 C28.4760563,6.98967836 28.7038647,6.22375345 28.7038647,5.10591709 C28.7038647,4.17438679 28.4760563,3.49126458 27.9997295,3.05655044 C27.5234028,2.6218363 26.8813971,2.41482957 26.0737126,2.41482957 C25.286738,2.41482957 24.6654422,2.64253697 24.1891154,3.07725111 C23.7127887,3.51196525 23.4849802,4.21578814 23.4849802,5.23012113 L23.4849802,5.23012113 Z" id="Shape"/>
        <path d="M41.1504901,0.241258877 L45.126783,0.241258877 L45.126783,5.66483527 C45.126783,6.8033723 45.0025238,7.67280057 44.7332957,8.25241942 C44.4640675,8.85273895 43.946321,9.34955511 43.1593464,9.76356857 C42.3723717,10.177582 41.3782985,10.3845888 40.135707,10.3845888 C38.8309858,10.3845888 37.8369126,10.2396841 37.1327774,9.9705753 C36.4286422,9.70146655 35.0617915,8.62503154 35.0617915,5.95464469 L38.5824675,5.95464469 C38.5824675,6.38935883 38.6445971,7.19668509 38.7274365,7.42439249 C38.8309858,7.63139923 38.9759548,7.81770529 39.2037633,7.94190933 C39.3487323,8.02471202 39.5765408,8.06611336 39.8457689,8.06611336 C40.280676,8.06611336 40.6120337,7.94190933 40.8191323,7.67280057 C41.0262309,7.42439249 41.1297802,6.98967836 41.1297802,6.38935883 L41.1297802,0.241258877 L41.1504901,0.241258877 Z" id="Shape"/>
        <path d="M49.5586929,0.241258877 L53.9284731,0.241258877 L53.9284731,10.1982827 L49.5586929,10.1982827 L49.5586929,0.241258877 L49.5586929,0.241258877 Z" id="Shape"/>
        <path d="M56.4343661,0.241258877 L61.2390534,0.241258877 L63.7449463,3.30495852 L66.1679999,0.241258877 L70.9312675,0.241258877 L66.5407773,5.06451574 L71.3454646,10.1982827 L66.437228,10.1982827 L63.641397,6.98967836 L60.8455661,10.1982827 L55.9787492,10.1982827 L60.8455661,5.00241372 L56.4343661,0.241258877 L56.4343661,0.241258877 Z" id="Shape"/>
      </g>
    </g>
  </g>
</svg>
